<svg id="Layer_3" data-name="Layer 3" xmlns="http://www.w3.org/2000/svg" viewBox="0 0 128 128"><title>Artboard 102</title><polygon points="64 14.895 87.928 27.171 111.855 39.447 87.928 51.724 64 64 40.072 51.724 16.145 39.447 40.072 27.171 64 14.895" style="fill:#d9ac80;fill-rule:evenodd"/><polygon points="93.91 59.805 93.91 48.655 81.946 54.792 81.946 65.943 88.542 57.824 93.91 59.805" style="fill:#d7baa4;fill-rule:evenodd"/><polygon points="64 64 64 113.105 111.855 88.553 111.855 39.448 93.91 48.655 93.507 48.862 93.507 59.656 88.542 57.824 81.946 65.943 81.946 54.792 64 64" style="fill:#a67e4f;fill-rule:evenodd"/><polygon points="64 113.105 64 64 40.072 51.724 16.145 39.448 16.145 88.553 64 113.105" style="fill:#926e43;fill-rule:evenodd"/><polygon points="34.091 30.24 81.946 54.792 93.507 48.862 93.91 48.655 46.054 24.102 40.072 27.171 34.091 30.24" style="fill:#f2d3ba;fill-rule:evenodd"/></svg>